<svg xmlns="http://www.w3.org/2000/svg" viewBox="0 0 256 256"><defs><style>.cls-1{fill:#1d384d;}</style></defs><title>bills</title><g id="icons_without_caption" data-name="icons without caption"><g id="BILLS"><path class="cls-1" d="M183.34,176.9a9.22,9.22,0,0,0-2.37.31V206h-9.18a9.2,9.2,0,0,0-18,0H141.74a9.2,9.2,0,0,0-18,0H111.68a9.2,9.2,0,0,0-18,0H81.63a9.2,9.2,0,0,0-17.95,0H54.51V71.92h9.17A9.22,9.22,0,0,0,71,79a9.66,9.66,0,0,0,1.62.14A9.35,9.35,0,0,0,75,78.8V74.53a5.2,5.2,0,0,1-2.38.58A5.09,5.09,0,0,1,71,74.85a5.2,5.2,0,0,1-3.57-4.93v-2h-17V210h17v-2a5.19,5.19,0,0,1,10.39,0v2H97.51v-2a5.2,5.2,0,0,1,10.39,0v2h19.67v-2A5.2,5.2,0,0,1,138,208v2h19.65v-2a5.2,5.2,0,0,1,10.4,0v2h17V177A8.75,8.75,0,0,0,183.34,176.9Z"/><path class="cls-1" d="M188.53,46v2a5.2,5.2,0,1,1-10.4,0V46H158.48v2a5.2,5.2,0,1,1-10.39,0V46H128.42v2A5.2,5.2,0,1,1,118,48V46H98.37v2A5.2,5.2,0,1,1,88,48V46H71v142.1H88v-2a5.2,5.2,0,0,1,10.39,0v2H118v-2a5.2,5.2,0,0,1,10.39,0v2h19.67v-2a5.2,5.2,0,0,1,10.39,0v2h19.65v-2a5.17,5.17,0,0,1,2.84-4.61,5,5,0,0,1,2.37-.58,5.18,5.18,0,0,1,5.19,5.19v2h17V46Zm13,138.1h-9.18a9.2,9.2,0,0,0-7.34-7,8.75,8.75,0,0,0-1.63-.15,9.22,9.22,0,0,0-9,7.19H162.26a9.2,9.2,0,0,0-18,0H132.2a9.2,9.2,0,0,0-18,0h-12.1a9.2,9.2,0,0,0-17.95,0H75V50H84.2a9.19,9.19,0,0,0,17.95,0h12.1a9.19,9.19,0,0,0,18,0h12.11a9.19,9.19,0,0,0,18,0h12.09a9.2,9.2,0,0,0,18,0h9.18Z"/><path class="cls-1" d="M102.54,142.93c-3.09-1-5.33-1.87-5.33-4.18s1.8-3.38,4.39-3.38a11.54,11.54,0,0,1,6.24,2.19l1.86-2.3a15.26,15.26,0,0,0-6.31-2.69v-4.85h-2.48v4.69c-4.52.21-7,2.94-7,6.54,0,4.41,3.69,5.68,7.74,7,3.41,1.06,5.55,1.95,5.55,4.61,0,2.33-2,3.68-4.76,3.68a10.54,10.54,0,0,1-7.14-3.07l-1.93,2.31a12.89,12.89,0,0,0,7.57,3.64v4.52h2.48v-4.49c4.5-.36,7.16-3,7.16-6.79C110.55,145.58,107.09,144.37,102.54,142.93Z"/><rect class="cls-1" x="93.34" y="73.71" width="89.36" height="4"/><rect class="cls-1" x="93.34" y="91.89" width="89.36" height="4"/><rect class="cls-1" x="93.34" y="110.07" width="89.36" height="4"/><rect class="cls-1" x="123" y="142.67" width="59.7" height="4"/></g></g></svg>