<svg xmlns="http://www.w3.org/2000/svg" viewBox="0 0 64 62"><title>salary</title><g id="Layer_2" data-name="Layer 2"><g id="salary"><path d="M50.95,35.76a13,13,0,0,0-8.82,3.48,25.49,25.49,0,0,0-5-2.27,15.42,15.42,0,0,0,5.22-9.17,5.7,5.7,0,0,0,3.55-8.53A1,1,0,0,0,45,18.8H44.3v-2c0-7.4-3.9-13.08-10.7-15.6C27.62-1,20.67-.14,17.52,3.12,7.39,4.66,7.35,14.79,7.37,18.8H6.65a1,1,0,0,0-.85.47,5.84,5.84,0,0,0-.16,5.84A5.59,5.59,0,0,0,10,27.9a15.4,15.4,0,0,0,4.76,8.68C5.31,39.94.2,46.79,0,56.5a1,1,0,0,0,.66,1,74.2,74.2,0,0,0,22.21,4.06l.13,0,.1,0c.88,0,1.76.05,2.65.05s1.72,0,2.59,0h.06A78.43,78.43,0,0,0,43.45,59.6a12.93,12.93,0,0,0,7.5,2.4,13.12,13.12,0,0,0,0-26.24ZM31.08,55l-2-9.77,2-4.81a17.38,17.38,0,0,0,4-1.95,25,25,0,0,1,5.61,2.28A13.11,13.11,0,0,0,41.55,58a76.59,76.59,0,0,1-11.79,1.5l1.29-4A1,1,0,0,0,31.08,55ZM27.35,44.12H24.48l-1.43-3.23a16,16,0,0,0,3.11.33h.1a14.78,14.78,0,0,0,2.41-.2Zm17-20.23a3.62,3.62,0,0,1-1.85,1.74V20.8h1.94A3.69,3.69,0,0,1,44.34,23.88ZM18.15,5a1,1,0,0,0,.63-.34c2.46-2.86,8.8-3.57,14.13-1.59,3.51,1.3,9.39,4.81,9.39,13.73v2H28.88c-5,0-6.33-1.56-8.78-5.09a1,1,0,0,0-.82-.43h0a1,1,0,0,0-.82.43L17.6,15c-2,3-2.57,3.83-5.77,3.83H9.37C9.35,14.63,9.37,6.18,18.15,5ZM7.39,24.14a3.81,3.81,0,0,1-.14-3.34h2.6v5s0,0,0,.06A3.49,3.49,0,0,1,7.39,24.14Zm4.46,1.65v-5c4.25,0,5.31-1.58,7.41-4.71l0-.06c2.24,3.06,4.24,4.77,9.59,4.77H40.49v5a13.38,13.38,0,0,1-6.1,10.77,14.57,14.57,0,0,1-8.22,2.66C18.68,39.17,11.85,32.77,11.85,25.79Zm4.81,12.3a17.23,17.23,0,0,0,3.88,2.06l2.24,5.06-2.44,9.55a1,1,0,0,0,0,.54l1.28,4.16A72,72,0,0,1,2,55.82C2.45,46.9,7.38,40.94,16.66,38.09Zm7.08,21.45L22.34,55l2.27-8.86H27.2l1.87,9-1.44,4.41C26.33,59.58,25,59.57,23.74,59.54ZM50.95,60A11.12,11.12,0,1,1,62,48.88,11.1,11.1,0,0,1,50.95,60Z"/><path d="M52.21,48c-.35-.1-.72-.15-1.07-.23S50,47.49,49.71,47a.78.78,0,0,1-.09-.38,1,1,0,0,1,.36-.86,1.72,1.72,0,0,1,1.43-.14,2.83,2.83,0,0,1,1.07.52,1,1,0,0,0,1.25.16,1,1,0,0,0,.41-.79,1.45,1.45,0,0,0-.53-1.08h0a3.67,3.67,0,0,0-1.45-.75l-.34-.09V42.35a.76.76,0,0,0-.29-.65c-.49-.38-1.62-.24-1.62.53v1.32l-.33.09A3,3,0,0,0,47.81,45a3.51,3.51,0,0,0-.42,2.31,2.11,2.11,0,0,0,.93,1.54,5.7,5.7,0,0,0,1.72.57,5.42,5.42,0,0,1,1.15.4,2.59,2.59,0,0,1,.52.34,1.23,1.23,0,0,1,.48,1.26,1.36,1.36,0,0,1-1.19.85,2.06,2.06,0,0,1-1.76-.76h0a1.48,1.48,0,0,0-.84-.61.94.94,0,0,0-.74.14,1,1,0,0,0-.45.69,1.28,1.28,0,0,0,.27,1,3.84,3.84,0,0,0,2.12,1.44l.33.09v1.07a.86.86,0,0,0,.42.8,1,1,0,0,0,1.48-.75V54.24l.33-.09a3.85,3.85,0,0,0,1.7-1,3,3,0,0,0,.87-2.46A3.29,3.29,0,0,0,52.21,48Z"/></g></g></svg>